<svg width="32" height="32" viewBox="0 0 32 32" fill="none" xmlns="http://www.w3.org/2000/svg">
  <!-- Background gradient circle -->
  <circle cx="16" cy="16" r="16" fill="url(#gradient)"/>
  
  <!-- Legal scales symbol with AI enhancement -->
  <g transform="translate(6, 8)">
    <!-- Scale beam -->
    <rect x="8" y="6" width="4" height="1" fill="white" opacity="0.9"/>
    
    <!-- Left scale pan -->
    <path d="M3 8 L7 8 L5 6 Z" fill="white" opacity="0.8"/>
    <line x1="5" y1="6" x2="5" y2="8" stroke="white" stroke-width="0.5"/>
    
    <!-- Right scale pan -->
    <path d="M13 8 L17 8 L15 6 Z" fill="white" opacity="0.8"/>
    <line x1="15" y1="6" x2="15" y2="8" stroke="white" stroke-width="0.5"/>
    
    <!-- Center pillar -->
    <rect x="9.5" y="6" width="1" height="8" fill="white" opacity="0.9"/>
    <rect x="8" y="13" width="4" height="1" fill="white" opacity="0.9"/>
    
    <!-- AI brain/circuit elements -->
    <circle cx="5" cy="2" r="1.5" fill="none" stroke="white" stroke-width="0.5" opacity="0.6"/>
    <circle cx="15" cy="2" r="1.5" fill="none" stroke="white" stroke-width="0.5" opacity="0.6"/>
    
    <!-- Neural connections -->
    <path d="M5 3.5 Q10 1 15 3.5" fill="none" stroke="white" stroke-width="0.3" opacity="0.4"/>
    <path d="M6.5 2 L8.5 4" stroke="white" stroke-width="0.3" opacity="0.4"/>
    <path d="M13.5 2 L11.5 4" stroke="white" stroke-width="0.3" opacity="0.4"/>
  </g>
  
  <!-- Gradient definition -->
  <defs>
    <linearGradient id="gradient" x1="0%" y1="0%" x2="100%" y2="100%">
      <stop offset="0%" style="stop-color:#8B5CF6;stop-opacity:1" />
      <stop offset="50%" style="stop-color:#3B82F6;stop-opacity:1" />
      <stop offset="100%" style="stop-color:#1E40AF;stop-opacity:1" />
    </linearGradient>
  </defs>
</svg>