<?xml version="1.0" encoding="UTF-8"?>
<svg width="200" height="200" viewBox="0 0 200 200" xmlns="http://www.w3.org/2000/svg">
  <defs>
    <!-- Main gradient matching your mockup style -->
    <linearGradient id="bgGradient" x1="0%" y1="0%" x2="100%" y2="100%">
      <stop offset="0%" style="stop-color:#2563eb;stop-opacity:1" />
      <stop offset="50%" style="stop-color:#3b82f6;stop-opacity:1" />
      <stop offset="100%" style="stop-color:#1d4ed8;stop-opacity:1" />
    </linearGradient>
    
    <!-- Letter gradient -->
    <linearGradient id="letterGradient" x1="0%" y1="0%" x2="100%" y2="100%">
      <stop offset="0%" style="stop-color:#60a5fa;stop-opacity:1" />
      <stop offset="100%" style="stop-color:#3b82f6;stop-opacity:1" />
    </linearGradient>
  </defs>
  
  <!-- Rounded square background like in your mockup -->
  <rect x="20" y="20" width="160" height="160" rx="32" ry="32" fill="url(#bgGradient)" stroke="none"/>
  
  <!-- Shadow/depth effect -->
  <rect x="22" y="22" width="156" height="156" rx="30" ry="30" fill="none" stroke="rgba(255,255,255,0.1)" stroke-width="1"/>
  
  <!-- The "A" symbol - clean and modern like your reference -->
  <g transform="translate(100, 100)">
    <!-- Main "A" shape -->
    <path d="M -35 35 L -20 -35 L -5 -35 L 20 35 L 5 35 L 0 20 L -25 20 L -30 35 Z M -20 -5 L -5 -5 L -12.5 -25 Z" fill="white" opacity="0.95"/>
    
    <!-- Modern accent on the "A" -->
    <rect x="-20" y="5" width="25" height="6" fill="url(#letterGradient)" rx="3"/>
    
    <!-- Small legal-tech indicator -->
    <circle cx="25" cy="-25" r="8" fill="rgba(255,255,255,0.2)"/>
    <rect x="21" y="-29" width="8" height="8" fill="white" opacity="0.8" rx="1"/>
  </g>
  
  <!-- Subtle highlight on top -->
  <ellipse cx="100" cy="50" rx="60" ry="20" fill="rgba(255,255,255,0.1)"/>
</svg>