<svg width="96" height="96" viewBox="0 0 96 96" xmlns="http://www.w3.org/2000/svg" role="img" aria-label="AnwaltsAI App Logo">
  <defs>
    <linearGradient id="shieldGradLarge" x1="0%" y1="0%" x2="100%" y2="100%">
      <stop offset="0%" style="stop-color:#2563eb;stop-opacity:1" />
      <stop offset="25%" style="stop-color:#3b82f6;stop-opacity:1" />
      <stop offset="75%" style="stop-color:#1e40af;stop-opacity:1" />
      <stop offset="100%" style="stop-color:#1d4ed8;stop-opacity:1" />
    </linearGradient>
    <linearGradient id="glassGradLarge" x1="0%" y1="0%" x2="0%" y2="100%">
      <stop offset="0%" style="stop-color:rgba(255,255,255,0.5);stop-opacity:1" />
      <stop offset="50%" style="stop-color:rgba(255,255,255,0.2);stop-opacity:1" />
      <stop offset="100%" style="stop-color:rgba(255,255,255,0.05);stop-opacity:1" />
    </linearGradient>
    <filter id="shadow" x="-50%" y="-50%" width="200%" height="200%">
      <feDropShadow dx="0" dy="4" stdDeviation="8" flood-opacity="0.3"/>
    </filter>
  </defs>
  
  <!-- Outer glow -->
  <circle cx="48" cy="48" r="46" fill="none" stroke="rgba(59,130,246,0.2)" stroke-width="2" opacity="0.6"/>
  
  <!-- Main shield shape -->
  <path d="M48 8 L72 16 L72 40 C72 62 58 80 48 88 C38 80 24 62 24 40 L24 16 Z" 
        fill="url(#shieldGradLarge)" 
        stroke="rgba(255,255,255,0.4)" 
        stroke-width="1"
        filter="url(#shadow)"/>
  
  <!-- Glassmorphism overlay -->
  <path d="M48 12 L68 18 L68 38 C68 58 56 74 48 82 C40 74 28 58 28 38 L28 18 Z" 
        fill="url(#glassGradLarge)"/>
  
  <!-- Legal scales symbol - larger and more detailed -->
  <g transform="translate(48,48) scale(1.2)" fill="white" opacity="0.95">
    <!-- Center pillar -->
    <rect x="-1" y="-8" width="2" height="20" rx="1"/>
    <!-- Scale beam -->
    <rect x="-14" y="-6" width="28" height="2" rx="1"/>
    <!-- Left scale pan -->
    <ellipse cx="-12" cy="4" rx="5" ry="2"/>
    <line x1="-12" y1="4" x2="-12" y2="-4" stroke="white" stroke-width="1.5"/>
    <!-- Right scale pan -->
    <ellipse cx="12" cy="4" rx="5" ry="2"/>
    <line x1="12" y1="4" x2="12" y2="-4" stroke="white" stroke-width="1.5"/>
    <!-- Base -->
    <rect x="-6" y="10" width="12" height="2" rx="1"/>
  </g>
  
  <!-- Subtle highlight -->
  <ellipse cx="48" cy="28" rx="20" ry="8" fill="rgba(255,255,255,0.15)"/>
</svg>